<svg width="16" height="16" viewBox="0 0 16 16" fill="none" xmlns="http://www.w3.org/2000/svg">
<path fill-rule="evenodd" clip-rule="evenodd" d="M13.8337 13.6264C14.1097 13.6264 14.3337 13.8504 14.3337 14.1264C14.3337 14.4024 14.1097 14.6264 13.8337 14.6264H8.99836C8.72236 14.6264 8.49836 14.4024 8.49836 14.1264C8.49836 13.8504 8.72236 13.6264 8.99836 13.6264H13.8337ZM10.7442 2.43576C10.7776 2.46176 11.8929 3.32843 11.8929 3.32843C12.2982 3.56976 12.6149 4.0011 12.7349 4.51176C12.8542 5.0171 12.7676 5.53843 12.4896 5.9791C12.4877 5.98204 12.4859 5.98494 12.4794 5.99358L12.4744 6.00025C12.4293 6.05972 12.2331 6.30776 11.2431 7.54815C11.2339 7.56441 11.2235 7.57963 11.2121 7.59443C11.1954 7.61624 11.1772 7.63628 11.1578 7.65453C11.0903 7.73956 11.019 7.8289 10.944 7.92283L10.792 8.11314C10.4785 8.50579 10.1066 8.97139 9.66541 9.52364L9.43899 9.80705C8.5872 10.8732 7.49633 12.2382 6.09889 13.9864C5.79289 14.3678 5.33422 14.5898 4.84156 14.5958L2.41556 14.6264H2.40889C2.17756 14.6264 1.97622 14.4678 1.92222 14.2418L1.37622 11.9278C1.26356 11.4484 1.37556 10.9538 1.68289 10.5698L7.96289 2.7151C7.96556 2.71243 7.96756 2.7091 7.97022 2.70643C8.65889 1.8831 9.90422 1.76176 10.7442 2.43576ZM7.26271 5.19133L2.46356 11.1944C2.34956 11.3371 2.30756 11.5211 2.34956 11.6978L2.80356 13.6211L4.82956 13.5958C5.02222 13.5938 5.20022 13.5078 5.31822 13.3611C5.92588 12.6008 6.6896 11.6453 7.47479 10.6627L7.7526 10.315L8.03087 9.96681C8.76725 9.04526 9.49475 8.13471 10.1035 7.37258L7.26271 5.19133ZM8.74022 3.34443L7.88737 4.41L10.7279 6.59062C11.2746 5.9058 11.6343 5.45476 11.6676 5.41176C11.7769 5.23443 11.8196 4.98376 11.7622 4.74243C11.7036 4.4951 11.5496 4.2851 11.3276 4.1511C11.2802 4.11843 10.1569 3.24643 10.1222 3.2191C9.69956 2.88043 9.08289 2.9391 8.74022 3.34443Z" fill="#222222"/>
</svg>
